<svg version="1.1" id="Layer_1" xmlns="http://www.w3.org/2000/svg" xmlns:xlink="http://www.w3.org/1999/xlink" x="0px" y="0px"
	 width="100%" viewBox="350 280 500 380" enable-background="new 350 280 500 380" xml:space="preserve">
<path fill="#013C4D" opacity="1.000000" stroke="none" 
	d="
M841.217407,264.471710 
	C842.278076,264.771240 843.656311,265.165741 843.761902,265.779297 
	C844.097168,267.727173 843.996094,269.756744 843.996216,271.754761 
	C844.002258,399.890137 844.001709,528.025513 844.001343,656.160889 
	C844.001343,657.160645 844.008057,658.160522 843.993713,659.160156 
	C843.902222,665.520813 843.516052,665.971558 837.117004,665.982056 
	C816.288818,666.016174 795.460571,666.014343 774.632324,665.984985 
	C768.230835,665.975952 768.012817,665.744385 768.011169,659.079041 
	C767.995850,595.761169 767.999939,532.443298 767.999451,469.125458 
	C767.999084,427.302338 768.049438,385.479065 767.927368,343.656311 
	C767.914734,339.337006 769.162048,336.183533 772.262024,333.118439 
	C795.248047,310.391479 818.075256,287.503937 841.217407,264.471710 
z"/>
<path fill="#D5441C" opacity="1.000000" stroke="none" 
	d="
M433.994934,638.491211 
	C433.151794,640.634338 432.664795,642.674500 431.411530,643.977783 
	C425.060791,650.582153 418.614166,657.104492 411.951904,663.391418 
	C410.456177,664.802856 407.972748,665.854858 405.926453,665.884949 
	C391.599396,666.096436 377.266876,665.911499 362.938141,666.055054 
	C359.339478,666.091064 357.562134,665.020447 357.984131,661.231018 
	C358.112427,660.079041 357.999817,658.900452 357.999817,657.734009 
	C357.999542,528.595703 357.999573,399.457397 357.999573,270.319092 
	C357.999573,268.050873 357.999573,265.782623 357.999573,262.022583 
	C360.384125,264.153015 361.714630,265.230988 362.919586,266.434601 
	C385.436462,288.926849 407.896698,311.476105 430.500610,333.880432 
	C433.091125,336.448090 434.073303,339.006653 434.070068,342.612274 
	C433.981445,441.090881 433.998352,539.569641 433.994934,638.491211 
z"/>
<path fill="#003C4C" opacity="1.000000" stroke="none" 
	d="
M740.994690,665.873047 
	C717.839355,665.910339 694.682617,665.819397 671.529724,666.076477 
	C665.862366,666.139465 665.977234,662.914246 665.979675,658.981384 
	C666.013733,604.505737 666.000610,550.030090 666.000488,495.554474 
	C666.000488,483.726440 665.864136,471.895203 666.128052,460.072998 
	C666.181824,457.663055 667.095154,454.639343 668.720642,452.992828 
	C691.425476,429.993835 714.320007,407.182129 737.187012,384.343384 
	C737.968201,383.563202 738.943970,382.977814 740.537415,381.760406 
	C740.731262,384.039886 740.975830,385.602966 740.980225,387.166687 
	C741.035156,406.739288 741.045959,426.312073 741.108765,445.884644 
	C741.112427,447.023010 741.465698,448.160248 741.514038,449.981689 
	C741.247925,453.150635 741.016479,455.635925 741.015747,458.121246 
	C740.994446,527.371826 740.996460,596.622437 740.994690,665.873047 
z"/>
<path fill="#003C4D" opacity="1.000000" stroke="none" 
	d="
M563.999878,632.000000 
	C564.001099,603.025330 563.904907,574.549866 564.148315,546.077271 
	C564.173706,543.105835 565.405334,539.348633 567.436890,537.312683 
	C589.858093,514.843384 612.545715,492.639862 635.177673,470.381134 
	C635.970886,469.601074 636.935059,468.994751 638.584229,467.713135 
	C638.751709,470.207275 638.968384,471.932281 638.968811,473.657379 
	C638.985657,535.435425 638.987732,597.213501 638.974243,658.991577 
	C638.972717,665.846191 638.831726,665.981750 631.959961,665.989197 
	C611.478210,666.011230 590.995056,665.867004 570.515686,666.087219 
	C565.491028,666.141235 563.740967,664.498474 563.916382,659.473572 
	C564.229858,650.492371 564.001648,641.492249 563.999878,632.000000 
z"/>
<path fill="#D4431B" opacity="1.000000" stroke="none" 
	d="
M460.443115,384.506927 
	C460.371704,378.406738 460.371704,372.591705 460.371704,365.751770 
	C462.016113,366.985229 463.053802,367.585938 463.873932,368.404602 
	C487.108551,391.598816 510.353912,414.782593 533.458618,438.105713 
	C534.886597,439.547211 535.878967,442.110138 535.891907,444.158783 
	C536.054138,469.822296 536.043579,495.487427 535.906738,521.151245 
	C535.896423,523.091309 535.124878,525.557983 533.805847,526.881653 
	C510.060669,550.711487 486.177521,574.403870 462.312073,598.113770 
	C461.978851,598.444763 461.494263,598.623413 460.190765,599.409973 
	C460.190765,588.032776 460.173523,577.249268 460.194580,566.465942 
	C460.230713,547.983643 460.351410,529.501221 460.323486,511.019073 
	C460.296661,493.295319 460.009338,475.571503 460.047119,457.848175 
	C460.098999,433.495941 460.349243,409.144104 460.443115,384.506927 
z"/>
<path fill="#A74225" opacity="1.000000" stroke="none" 
	d="
M536.987915,572.026245 
	C537.058533,601.622803 537.042542,630.832397 537.267334,660.040161 
	C537.301514,664.484375 536.166992,666.072754 531.450195,666.040161 
	C502.291443,665.838440 473.130524,665.944641 443.970337,665.925598 
	C442.554993,665.924683 441.139771,665.707703 438.810486,665.516235 
	C440.466156,663.668457 441.474243,662.421936 442.605042,661.298950 
	C472.611877,631.500061 502.616943,601.699280 532.723816,572.001709 
	C533.564941,571.171997 535.190247,566.512817 536.987915,572.026245 
z"/>
<path fill="#8E412C" opacity="1.000000" stroke="none" 
	d="
M670.094116,263.022705 
	C660.835754,272.369537 651.600098,281.739014 642.313477,291.057648 
	C629.725281,303.689178 617.046997,316.231506 604.530212,328.933136 
	C602.000916,331.499725 600.269043,331.757538 597.589905,329.057770 
	C575.873474,307.173950 554.037781,285.408508 532.547607,263.308350 
	C578.602600,263.014038 624.348328,263.018372 670.094116,263.022705 
z"/>
<path fill="#D4421A" opacity="1.000000" stroke="none" 
	d="
M566.439087,497.413818 
	C565.428223,498.238770 564.668152,498.816742 563.270264,499.879669 
	C563.270264,484.793732 563.270264,470.390076 563.270264,456.000366 
	C570.455688,463.534607 577.574036,470.998566 585.178467,478.972198 
	C579.689697,484.373688 573.189758,490.770264 566.439087,497.413818 
z"/>
<path fill="#713E33" opacity="1.000000" stroke="none" 
	d="
M741.196045,665.523193 
	C740.996460,596.622437 740.994446,527.371826 741.015747,458.121246 
	C741.016479,455.635925 741.247925,453.150635 741.621338,450.333130 
	C741.913818,486.623199 741.971924,523.245422 741.995544,559.867676 
	C742.016541,592.495605 742.012451,625.123474 741.973145,657.751343 
	C741.970154,660.225525 741.597961,662.699341 741.196045,665.523193 
z"/>
<path fill="#7A3F2F" opacity="1.000000" stroke="none" 
	d="
M669.901123,262.798187 
	C624.348328,263.018372 578.602600,263.014038 532.381226,263.016174 
	C533.468018,262.682983 535.030029,262.048615 536.592896,262.046661 
	C579.499817,261.992828 622.406738,261.997864 665.313721,262.027405 
	C666.778625,262.028412 668.243286,262.383575 669.901123,262.798187 
z"/>
</svg>